<svg xmlns="http://www.w3.org/2000/svg" viewBox="0 0 512 512" width="512" height="512">
  <rect width="512" height="512" rx="112" fill="#06060C"/>
  <rect width="512" height="512" rx="112" fill="none" stroke="#D4A843" stroke-width="6" stroke-opacity="0.6"/>
  <!-- Outer ring glow -->
  <rect width="512" height="512" rx="112" fill="none" stroke="#F5D98A" stroke-width="1.5" stroke-opacity="0.2"/>
  <!-- Paddle body -->
  <ellipse cx="234" cy="234" rx="106" ry="138" fill="#D4A843" opacity="0.92"/>
  <!-- Subtle paddle highlight -->
  <ellipse cx="210" cy="190" rx="40" ry="60" fill="#F5D98A" opacity="0.15"/>
  <!-- Paddle face grid -->
  <line x1="148" y1="192" x2="320" y2="192" stroke="#06060C" stroke-width="4" opacity="0.45"/>
  <line x1="142" y1="224" x2="326" y2="224" stroke="#06060C" stroke-width="4" opacity="0.45"/>
  <line x1="138" y1="256" x2="330" y2="256" stroke="#06060C" stroke-width="4" opacity="0.45"/>
  <line x1="140" y1="288" x2="328" y2="288" stroke="#06060C" stroke-width="4" opacity="0.45"/>
  <line x1="144" y1="320" x2="324" y2="320" stroke="#06060C" stroke-width="4" opacity="0.45"/>
  <line x1="200" y1="100" x2="200" y2="366" stroke="#06060C" stroke-width="4" opacity="0.45"/>
  <line x1="222" y1="96" x2="222" y2="370" stroke="#06060C" stroke-width="4" opacity="0.45"/>
  <line x1="246" y1="96" x2="246" y2="370" stroke="#06060C" stroke-width="4" opacity="0.45"/>
  <line x1="268" y1="100" x2="268" y2="366" stroke="#06060C" stroke-width="4" opacity="0.45"/>
  <!-- Handle -->
  <rect x="212" y="366" width="44" height="82" rx="22" fill="#8A6118"/>
  <rect x="218" y="372" width="18" height="70" rx="9" fill="#B8872A" opacity="0.4"/>
  <!-- Grip wrap lines -->
  <line x1="212" y1="386" x2="256" y2="386" stroke="#6A4810" stroke-width="3" opacity="0.6"/>
  <line x1="212" y1="402" x2="256" y2="402" stroke="#6A4810" stroke-width="3" opacity="0.6"/>
  <line x1="212" y1="418" x2="256" y2="418" stroke="#6A4810" stroke-width="3" opacity="0.6"/>
  <!-- Ball -->
  <circle cx="342" cy="170" r="40" fill="#F5D98A" opacity="0.96"/>
  <circle cx="342" cy="170" r="40" fill="none" stroke="#B8872A" stroke-width="3"/>
  <!-- Ball holes pattern -->
  <circle cx="330" cy="160" r="3" fill="#B8872A" opacity="0.5"/>
  <circle cx="345" cy="155" r="3" fill="#B8872A" opacity="0.5"/>
  <circle cx="358" cy="165" r="3" fill="#B8872A" opacity="0.5"/>
  <circle cx="335" cy="175" r="3" fill="#B8872A" opacity="0.5"/>
  <circle cx="350" cy="178" r="3" fill="#B8872A" opacity="0.5"/>
</svg>
